<svg xmlns="http://www.w3.org/2000/svg" xmlns:xlink="http://www.w3.org/1999/xlink" width="1056.736" height="1064.581" viewBox="0 0 1056.736 1064.581">
    <defs>
        <clipPath id="clip-path">
            <path id="Path_2" data-name="Path 2" d="M959.4,500,679.8,779.7l279.6,279.7H639.9L520,939.5h0L360.2,779.7,639.9,500ZM639.9,20.7,120.6,540,280.4,699.8l679-679.1Z"/>
        </clipPath>
        <linearGradient id="linear-gradient" x1="37.952" y1="-44.75" x2="39.96" y2="-41.771" gradientUnits="objectBoundingBox">
            <stop offset="0" stop-color="#1a237e" stop-opacity="0.4"/>
            <stop offset="1" stop-color="#1a237e" stop-opacity="0"/>
        </linearGradient>
        <radialGradient id="radial-gradient" cx="0.028" cy="0.068" r="1.223" gradientTransform="matrix(1.238, 0, 0, -1, -2.189, -5.539)" gradientUnits="objectBoundingBox">
            <stop offset="0" stop-color="#fff" stop-opacity="0.102"/>
            <stop offset="1" stop-color="#fff" stop-opacity="0"/>
        </radialGradient>
    </defs>
    <g id="Group_14" data-name="Group 14" transform="translate(1168 297)">
        <g id="pluginIcon" transform="translate(-1288.6 -317.7)">
            <g id="Group_13" data-name="Group 13">
                <g id="Group_12" data-name="Group 12">
                    <g id="Group_3" data-name="Group 3">
                        <g id="Group_2" data-name="Group 2" clip-path="url(#clip-path)">
                            <g id="Group_1" data-name="Group 1">
                                <path id="Path_1" data-name="Path 1" d="M959.4,500H639.9L360.3,779.7,520,939.5Z" fill="#39cefd"/>
                            </g>
                        </g>
                    </g>
                    <g id="Group_5" data-name="Group 5">
                        <g id="Group_4" data-name="Group 4" clip-path="url(#clip-path)">
                            <path id="Path_3" data-name="Path 3" d="M280.4,699.8,120.6,540,639.9,20.7H959.4Z" fill="#39cefd"/>
                        </g>
                    </g>
                    <g id="Group_7" data-name="Group 7">
                        <g id="Group_6" data-name="Group 6" clip-path="url(#clip-path)">
                            <path id="Path_5" data-name="Path 5" d="M520,939.5l119.9,119.8H959.4L679.8,779.7Z" fill="#03569b"/>
                        </g>
                    </g>
                    <g id="Group_9" data-name="Group 9">
                        <g id="Group_8" data-name="Group 8" clip-path="url(#clip-path)">
                            <path id="Path_7" data-name="Path 7" d="M520,939.5l237-82.1-77.2-77.7Z" fill="url(#linear-gradient)"/>
                        </g>
                    </g>
                    <g id="Group_11" data-name="Group 11">
                        <g id="Group_10" data-name="Group 10" clip-path="url(#clip-path)">
                            <rect id="Rectangle_1" data-name="Rectangle 1" width="226" height="226" transform="translate(360.282 779.645) rotate(-45)" fill="#16b9fd"/>
                        </g>
                    </g>
                </g>
                <path id="Path_10" data-name="Path 10" d="M959.4,500,679.8,779.7l279.6,279.7H639.9L520,939.5h0L360.2,779.7,639.9,500ZM639.9,20.7,120.6,540,280.4,699.8l679-679.1Z" fill="url(#radial-gradient)"/>
            </g>
        </g>
        <g id="bloc_logo_full" transform="translate(-1275.999 2527.944)">
            <path id="Path_11" data-name="Path 11" d="M205.544-1293.606c0,.179-.339.359-.754.359s-.754.143-.754.359c0,.179-.3.358-.678.358a1.8,1.8,0,0,0-1.206.717,1.743,1.743,0,0,1-1.131.717,1.742,1.742,0,0,0-1.131.717,1.8,1.8,0,0,1-1.206.717c-.377,0-.678.143-.678.358,0,.179-.3.358-.678.358a1.8,1.8,0,0,0-1.206.717,1.8,1.8,0,0,1-1.206.717c-.377,0-.678.144-.678.359,0,.179-.3.359-.678.359a1.8,1.8,0,0,0-1.206.717,1.743,1.743,0,0,1-1.131.717,1.743,1.743,0,0,0-1.131.717,1.8,1.8,0,0,1-1.206.717c-.377,0-.678.143-.678.359,0,.179-.3.359-.678.359a1.8,1.8,0,0,0-1.206.717,1.8,1.8,0,0,1-1.206.717c-.377,0-.678.143-.678.358,0,.179-.3.359-.678.359a1.8,1.8,0,0,0-1.206.717,1.742,1.742,0,0,1-1.131.717,1.742,1.742,0,0,0-1.131.717,1.8,1.8,0,0,1-1.206.717c-.377,0-.678.144-.678.359,0,.179-.3.359-.678.359a1.8,1.8,0,0,0-1.206.717,1.8,1.8,0,0,1-1.206.717c-.377,0-.678.143-.678.359,0,.179-.3.358-.678.358a1.8,1.8,0,0,0-1.206.717,1.8,1.8,0,0,1-1.206.717c-.377,0-.678.144-.678.359,0,.179-.3.359-.678.359a1.8,1.8,0,0,0-1.206.717,1.743,1.743,0,0,1-1.131.717,1.742,1.742,0,0,0-1.131.717,1.8,1.8,0,0,1-1.206.717c-.377,0-.678.143-.678.359,0,.179-.3.359-.678.359a1.8,1.8,0,0,0-1.206.717,1.8,1.8,0,0,1-1.206.717c-.377,0-.678.143-.678.359,0,.179-.3.358-.678.358a1.8,1.8,0,0,0-1.206.717,1.742,1.742,0,0,1-1.131.717,1.743,1.743,0,0,0-1.131.717,1.8,1.8,0,0,1-1.206.717c-.377,0-.678.143-.678.358,0,.179-.3.359-.678.359a1.8,1.8,0,0,0-1.206.717,1.8,1.8,0,0,1-1.206.717c-.377,0-.678.143-.678.359,0,.179-.3.359-.678.359a1.8,1.8,0,0,0-1.206.717,1.742,1.742,0,0,1-1.131.717,1.743,1.743,0,0,0-1.131.717,1.8,1.8,0,0,1-1.206.717c-.377,0-.678.143-.678.359,0,.179-.3.359-.678.359a1.8,1.8,0,0,0-1.206.717,1.8,1.8,0,0,1-1.206.717c-.377,0-.678.143-.678.358,0,.179-.3.359-.678.359a1.8,1.8,0,0,0-1.206.717,1.742,1.742,0,0,1-1.131.717,1.742,1.742,0,0,0-1.131.717,1.8,1.8,0,0,1-1.206.717c-.377,0-.678.144-.678.359,0,.179-.3.359-.678.359a1.8,1.8,0,0,0-1.206.717,1.8,1.8,0,0,1-1.206.717c-.377,0-.678.143-.678.359,0,.179-.3.358-.678.358a1.8,1.8,0,0,0-1.206.717,1.8,1.8,0,0,1-1.206.717c-.377,0-.678.144-.678.359,0,.179-.3.359-.678.359a1.8,1.8,0,0,0-1.206.717,1.742,1.742,0,0,1-1.131.717,1.743,1.743,0,0,0-1.131.717,1.8,1.8,0,0,1-1.206.717c-.377,0-.678.143-.678.359,0,.179-.3.359-.678.359a1.8,1.8,0,0,0-1.206.717,1.8,1.8,0,0,1-1.206.717c-.377,0-.678.143-.678.359,0,.179-.3.358-.678.358a1.8,1.8,0,0,0-1.206.717,1.742,1.742,0,0,1-1.131.717,1.743,1.743,0,0,0-1.131.717,1.8,1.8,0,0,1-1.206.717c-.377,0-.678.143-.678.358,0,.179-.3.359-.678.359a1.8,1.8,0,0,0-1.206.717,1.8,1.8,0,0,1-1.206.717c-.377,0-.678.143-.678.359,0,.179-.3.358-.678.358a1.8,1.8,0,0,0-1.206.717,1.742,1.742,0,0,1-1.131.717,1.743,1.743,0,0,0-1.131.717,1.8,1.8,0,0,1-1.206.717c-.377,0-.678.143-.678.358,0,.179-.3.359-.678.359a1.8,1.8,0,0,0-1.206.717,1.8,1.8,0,0,1-1.206.717c-.377,0-.678.144-.678.359,0,.179-.3.359-.678.359a1.8,1.8,0,0,0-1.206.717,1.743,1.743,0,0,1-1.131.717,1.743,1.743,0,0,0-1.131.717,1.8,1.8,0,0,1-1.206.717c-.377,0-.678.144-.678.359,0,.179-.3.358-.678.358a1.8,1.8,0,0,0-1.206.717,1.8,1.8,0,0,1-1.206.717c-.377,0-.678.143-.678.359,0,.179-.3.358-.678.358a1.8,1.8,0,0,0-1.206.717,1.8,1.8,0,0,1-1.206.717c-.377,0-.678.144-.678.359,0,.179-.3.359-.678.359a1.8,1.8,0,0,0-1.206.717,1.742,1.742,0,0,1-1.131.717,1.743,1.743,0,0,0-1.131.717,1.8,1.8,0,0,1-1.206.717c-.377,0-.678.143-.678.359,0,.179-.3.358-.678.358a1.8,1.8,0,0,0-1.206.717,1.8,1.8,0,0,1-1.206.717c-.377,0-.678.143-.678.359,0,.179-.3.358-.678.358a1.8,1.8,0,0,0-1.206.717,1.742,1.742,0,0,1-1.131.717,1.743,1.743,0,0,0-1.131.717,1.8,1.8,0,0,1-1.206.717c-.377,0-.678.144-.678.359,0,.179-.3.359-.678.359a1.8,1.8,0,0,0-1.206.717,1.8,1.8,0,0,1-1.206.717c-.377,0-.678.143-.678.359,0,.179-.3.358-.678.358a1.8,1.8,0,0,0-1.206.717,1.742,1.742,0,0,1-1.131.717,1.742,1.742,0,0,0-1.131.717,1.8,1.8,0,0,1-1.206.717c-.377,0-.678.143-.678.358,0,.179-.3.359-.678.359a1.8,1.8,0,0,0-1.206.717,1.8,1.8,0,0,1-1.206.717c-.377,0-.678.143-.678.359,0,.179-.3.359-.678.359a1.8,1.8,0,0,0-1.206.717,1.742,1.742,0,0,1-1.131.717,1.742,1.742,0,0,0-1.131.717,1.8,1.8,0,0,1-1.206.717c-.377,0-.678.143-.678.359,0,.179-.3.358-.678.358a1.8,1.8,0,0,0-1.206.717,1.742,1.742,0,0,1-1.131.717,1.742,1.742,0,0,0-1.131.717,1.8,1.8,0,0,1-1.206.717c-.377,0-.678.143-.678.358,0,.179-.3.358-.678.358a1.8,1.8,0,0,0-1.206.717,1.8,1.8,0,0,1-1.206.717c-.377,0-.678.143-.678.359,0,.179-.3.359-.678.359a1.8,1.8,0,0,0-1.206.717,1.743,1.743,0,0,1-1.131.717,1.742,1.742,0,0,0-1.131.717,1.8,1.8,0,0,1-1.206.717c-.377,0-.678.143-.678.359,0,.179-.3.359-.678.359a1.8,1.8,0,0,0-1.206.717,1.8,1.8,0,0,1-1.206.717c-.377,0-.678.143-.678.359,0,.179-.3.359-.678.359a1.8,1.8,0,0,0-1.206.717,1.742,1.742,0,0,1-1.131.717,1.743,1.743,0,0,0-1.131.717,1.8,1.8,0,0,1-1.206.717c-.377,0-.678.144-.678.359,0,.179-.3.359-.678.359a1.8,1.8,0,0,0-1.206.717,1.8,1.8,0,0,1-1.206.717c-.377,0-.678.143-.678.359,0,.179-.3.359-.678.359a1.8,1.8,0,0,0-1.206.717,1.742,1.742,0,0,1-1.131.717,1.742,1.742,0,0,0-1.131.717,1.8,1.8,0,0,1-1.206.717c-.377,0-.678.144-.678.359,0,.179-.3.358-.678.358a1.8,1.8,0,0,0-1.206.717,1.8,1.8,0,0,1-1.206.717c-.377,0-.678.144-.678.359,0,.179-.3.359-.678.359a1.8,1.8,0,0,0-1.206.717,1.742,1.742,0,0,1-1.131.717,1.742,1.742,0,0,0-1.131.717,1.8,1.8,0,0,1-1.206.717c-.377,0-.678.143-.678.358,0,.179-.264.359-.6.359-1.734,0-1.659-2.259-1.659,52.485,0,34.094.113,51.481.377,51.481s.377,20.973.377,62.236c0,66.252-.075,63.24,1.659,63.24.339,0,.6.143.6.359,0,.179.3.359.678.359a1.8,1.8,0,0,1,1.206.717,1.8,1.8,0,0,0,1.206.717c.377,0,.678.143.678.359,0,.179.3.359.678.359a1.8,1.8,0,0,1,1.206.717,1.8,1.8,0,0,0,1.206.717c.377,0,.678.143.678.359,0,.179.3.359.678.359a1.8,1.8,0,0,1,1.206.717,1.8,1.8,0,0,0,1.206.717c.377,0,.678.143.678.359,0,.179.3.358.678.358a1.8,1.8,0,0,1,1.206.717,1.8,1.8,0,0,0,1.206.717c.377,0,.678.143.678.359,0,.179.3.359.678.359a1.8,1.8,0,0,1,1.206.717,1.8,1.8,0,0,0,1.206.717c.377,0,.678.143.678.359,0,.179.3.359.678.359a1.8,1.8,0,0,1,1.206.717,1.8,1.8,0,0,0,1.206.717c.377,0,.678.143.678.359,0,.179.3.359.678.359a1.8,1.8,0,0,1,1.206.717,1.8,1.8,0,0,0,1.206.717c.377,0,.678.143.678.358,0,.179.3.359.678.359a1.8,1.8,0,0,1,1.206.717,1.8,1.8,0,0,0,1.206.717c.377,0,.678.143.678.359,0,.179.3.359.678.359a1.8,1.8,0,0,1,1.206.717,1.8,1.8,0,0,0,1.206.717c.377,0,.678.143.678.359,0,.179.3.359.678.359a1.8,1.8,0,0,1,1.206.717,1.8,1.8,0,0,0,1.206.717c.377,0,.678.143.678.359,0,.179.3.359.678.359a1.8,1.8,0,0,1,1.206.717,1.8,1.8,0,0,0,1.206.717c.377,0,.678.143.678.358,0,.179.3.359.678.359a1.8,1.8,0,0,1,1.206.717,1.8,1.8,0,0,0,1.206.717c.377,0,.678.143.678.359,0,.179.3.359.678.359a1.8,1.8,0,0,1,1.206.717,1.8,1.8,0,0,0,1.206.717c.377,0,.678.143.678.359,0,.179.3.359.678.359a1.8,1.8,0,0,1,1.206.717,1.8,1.8,0,0,0,1.206.717c.377,0,.678.143.678.359,0,.179.3.359.678.359a1.8,1.8,0,0,1,1.206.717,1.8,1.8,0,0,0,1.206.717c.377,0,.678.143.678.358,0,.179.339.359.754.359s.754.143.754.359c0,.179.3.359.678.359a1.8,1.8,0,0,1,1.206.717,1.8,1.8,0,0,0,1.206.717c.377,0,.678.143.678.359,0,.179.3.359.678.359a1.8,1.8,0,0,1,1.206.717,1.8,1.8,0,0,0,1.206.717c.377,0,.678.143.678.359,0,.179.3.358.678.358a1.8,1.8,0,0,1,1.206.717,1.8,1.8,0,0,0,1.206.717c.377,0,.678.143.678.359,0,.179.3.358.678.358a1.8,1.8,0,0,1,1.206.717,1.8,1.8,0,0,0,1.206.717c.377,0,.678.143.678.359,0,.179.3.359.678.359a1.8,1.8,0,0,1,1.206.717,1.8,1.8,0,0,0,1.206.717c.377,0,.678.143.678.359,0,.179.3.359.678.359a1.8,1.8,0,0,1,1.206.717,1.8,1.8,0,0,0,1.206.717c.377,0,.678.143.678.359,0,.179.3.358.678.358a1.8,1.8,0,0,1,1.206.717,1.8,1.8,0,0,0,1.206.717c.377,0,.678.143.678.359,0,.179.3.358.678.358a1.8,1.8,0,0,1,1.206.717,1.8,1.8,0,0,0,1.206.717c.377,0,.678.143.678.359,0,.179.3.359.678.359a1.8,1.8,0,0,1,1.206.717,1.8,1.8,0,0,0,1.206.717c.377,0,.678.143.678.359,0,.179.3.359.678.359a1.8,1.8,0,0,1,1.206.717,1.8,1.8,0,0,0,1.206.717c.377,0,.678.143.678.358,0,.179.3.359.678.359a1.8,1.8,0,0,1,1.206.717,1.8,1.8,0,0,0,1.206.717c.377,0,.678.143.678.358,0,.179.3.359.678.359a1.8,1.8,0,0,1,1.206.717,1.8,1.8,0,0,0,1.206.717c.377,0,.678.143.678.359,0,.179.3.359.678.359a1.8,1.8,0,0,1,1.206.717,1.8,1.8,0,0,0,1.206.717c.377,0,.678.143.678.359,0,.179.3.359.678.359a1.8,1.8,0,0,1,1.206.717,1.8,1.8,0,0,0,1.206.717c.377,0,.678.143.678.359,0,.179.3.359.678.359a1.8,1.8,0,0,1,1.206.717,1.8,1.8,0,0,0,1.206.717c.377,0,.678.143.678.359,0,.179.3.359.678.359a1.8,1.8,0,0,1,1.206.717,1.8,1.8,0,0,0,1.206.717c.377,0,.678.143.678.359,0,.179.3.358.678.358a1.8,1.8,0,0,1,1.206.717,1.8,1.8,0,0,0,1.206.717c.377,0,.678.143.678.359,0,.179.3.359.678.359a1.8,1.8,0,0,1,1.206.717,1.8,1.8,0,0,0,1.206.717c.377,0,.678.143.678.359,0,.179.3.359.678.359a1.8,1.8,0,0,1,1.206.717,1.8,1.8,0,0,0,1.206.717c.377,0,.678.143.678.359,0,.179.3.359.678.359a1.8,1.8,0,0,1,1.206.717,1.8,1.8,0,0,0,1.206.717c.377,0,.678.143.678.359,0,.179.3.359.678.359a1.8,1.8,0,0,1,1.206.717,1.8,1.8,0,0,0,1.206.717c.377,0,.678.143.678.359,0,.179.3.358.678.358a1.8,1.8,0,0,1,1.206.717,1.8,1.8,0,0,0,1.206.717c.377,0,.678.143.678.359,0,.179.3.358.678.358a1.8,1.8,0,0,1,1.206.717,1.8,1.8,0,0,0,1.206.717c.377,0,.678.143.678.359,0,.179.3.359.678.359a1.8,1.8,0,0,1,1.206.717,1.8,1.8,0,0,0,1.206.717c.377,0,.678.143.678.359,0,.179.3.359.678.359a1.8,1.8,0,0,1,1.206.717,1.8,1.8,0,0,0,1.206.717c.377,0,.678.143.678.359,0,.179.3.358.678.358a1.8,1.8,0,0,1,1.206.717,1.8,1.8,0,0,0,1.206.717c.377,0,.678.143.678.359,0,.179.3.358.678.358a1.8,1.8,0,0,1,1.206.717,1.8,1.8,0,0,0,1.206.717c.377,0,.678.143.678.359,0,.179.3.359.678.359a1.8,1.8,0,0,1,1.206.717,1.8,1.8,0,0,0,1.206.717c.377,0,.678.143.678.359,0,.179.3.359.678.359a1.8,1.8,0,0,1,1.206.717,1.8,1.8,0,0,0,1.206.717c.377,0,.678.143.678.359,0,.179.3.359.678.359a1.8,1.8,0,0,1,1.206.717,1.8,1.8,0,0,0,1.206.717c.377,0,.678.143.678.358,0,.179.3.359.678.359a1.8,1.8,0,0,1,1.206.717,1.8,1.8,0,0,0,1.206.717c.377,0,.678.143.678.358,0,.179.3.359.678.359a1.8,1.8,0,0,1,1.206.717A1.8,1.8,0,0,0,183-844.4c.377,0,.678.143.678.359,0,.179.3.359.678.359a1.8,1.8,0,0,1,1.206.717,1.8,1.8,0,0,0,1.206.717c.377,0,.678.143.678.359,0,.179.3.359.678.359a1.8,1.8,0,0,1,1.206.717,1.8,1.8,0,0,0,1.206.717c.377,0,.678.143.678.359,0,.179.339.359.754.359s.754.143.754.359c0,.179.3.359.678.359a1.8,1.8,0,0,1,1.206.717,1.8,1.8,0,0,0,1.206.717c.377,0,.678.143.678.359,0,.179.3.359.678.359a1.8,1.8,0,0,1,1.206.717,1.8,1.8,0,0,0,1.206.717c.377,0,.678.143.678.358,0,.179.3.359.678.359a1.8,1.8,0,0,1,1.206.717,1.8,1.8,0,0,0,1.206.717c.377,0,.678.143.678.358,0,.179.3.359.678.359a1.8,1.8,0,0,1,1.206.717,1.8,1.8,0,0,0,1.206.717c.377,0,.678.143.678.359,0,.645,1.319.394,1.885-.359a1.742,1.742,0,0,1,1.131-.717,1.742,1.742,0,0,0,1.131-.717,1.8,1.8,0,0,1,1.206-.717c.377,0,.678-.179.678-.359,0-.215.3-.359.678-.359a1.8,1.8,0,0,0,1.206-.717,1.8,1.8,0,0,1,1.206-.717c.377,0,.678-.179.678-.359,0-.215.3-.359.678-.359a1.8,1.8,0,0,0,1.206-.717,1.743,1.743,0,0,1,1.131-.717,1.742,1.742,0,0,0,1.131-.717,1.8,1.8,0,0,1,1.206-.717c.377,0,.678-.179.678-.359,0-.215.3-.359.678-.359a1.8,1.8,0,0,0,1.206-.717,1.8,1.8,0,0,1,1.206-.717c.377,0,.678-.179.678-.359,0-.215.3-.359.678-.359a1.8,1.8,0,0,0,1.206-.717,1.743,1.743,0,0,1,1.131-.717,1.742,1.742,0,0,0,1.131-.717,1.8,1.8,0,0,1,1.206-.717c.377,0,.678-.179.678-.359,0-.215.3-.359.678-.359a1.8,1.8,0,0,0,1.206-.717,1.8,1.8,0,0,1,1.206-.717c.377,0,.678-.179.678-.359,0-.215.3-.359.678-.359a1.8,1.8,0,0,0,1.206-.717,1.8,1.8,0,0,1,1.206-.717c.377,0,.678-.179.678-.359,0-.215.3-.359.678-.359a1.8,1.8,0,0,0,1.206-.717,1.743,1.743,0,0,1,1.131-.717,1.742,1.742,0,0,0,1.131-.717,1.8,1.8,0,0,1,1.206-.717c.377,0,.678-.179.678-.359,0-.215.3-.359.678-.359a1.8,1.8,0,0,0,1.206-.717,1.8,1.8,0,0,1,1.206-.717c.377,0,.678-.179.678-.359,0-.215.3-.359.678-.359a1.8,1.8,0,0,0,1.206-.717,1.743,1.743,0,0,1,1.131-.717,1.742,1.742,0,0,0,1.131-.717,1.8,1.8,0,0,1,1.206-.717c.377,0,.678-.179.678-.359,0-.215.3-.359.678-.359a1.8,1.8,0,0,0,1.206-.717,1.8,1.8,0,0,1,1.206-.717c.377,0,.678-.179.678-.359,0-.215.3-.359.678-.359a1.8,1.8,0,0,0,1.206-.717,1.8,1.8,0,0,1,1.206-.717c.377,0,.678-.179.678-.359,0-.215.3-.359.678-.359a1.8,1.8,0,0,0,1.206-.717,1.742,1.742,0,0,1,1.131-.717,1.742,1.742,0,0,0,1.131-.717,1.8,1.8,0,0,1,1.206-.717c.377,0,.678-.179.678-.359,0-.215.3-.359.678-.359a1.8,1.8,0,0,0,1.206-.717,1.8,1.8,0,0,1,1.206-.717c.377,0,.678-.179.678-.359,0-.215.3-.359.678-.359a1.8,1.8,0,0,0,1.206-.717,1.743,1.743,0,0,1,1.131-.717,1.742,1.742,0,0,0,1.131-.717,1.8,1.8,0,0,1,1.206-.717c.377,0,.678-.179.678-.359,0-.215.3-.359.678-.359a1.8,1.8,0,0,0,1.206-.717,1.8,1.8,0,0,1,1.206-.717c.377,0,.678-.179.678-.359,0-.215.3-.359.678-.359a1.8,1.8,0,0,0,1.206-.717,1.742,1.742,0,0,1,1.131-.717,1.743,1.743,0,0,0,1.131-.717,1.8,1.8,0,0,1,1.206-.717c.377,0,.678-.179.678-.359,0-.215.3-.359.678-.359a1.8,1.8,0,0,0,1.206-.717,1.8,1.8,0,0,1,1.206-.717c.377,0,.678-.179.678-.359,0-.215.3-.359.678-.359a1.8,1.8,0,0,0,1.206-.717,1.742,1.742,0,0,1,1.131-.717,1.743,1.743,0,0,0,1.131-.717,1.8,1.8,0,0,1,1.206-.717c.377,0,.678-.179.678-.359,0-.215.3-.359.678-.359a1.8,1.8,0,0,0,1.206-.717,1.8,1.8,0,0,1,1.206-.717c.377,0,.678-.179.678-.359,0-.215.3-.359.678-.359a1.8,1.8,0,0,0,1.206-.717,1.8,1.8,0,0,1,1.206-.717c.377,0,.678-.179.678-.359,0-.215.3-.359.678-.359a1.8,1.8,0,0,0,1.206-.717,1.742,1.742,0,0,1,1.131-.717,1.743,1.743,0,0,0,1.131-.717,1.8,1.8,0,0,1,1.206-.717c.377,0,.678-.179.678-.359,0-.215.3-.358.678-.358a1.8,1.8,0,0,0,1.206-.717,1.8,1.8,0,0,1,1.206-.717c.377,0,.678-.179.678-.359,0-.215.3-.359.678-.359A1.8,1.8,0,0,0,319-894.59a1.742,1.742,0,0,1,1.131-.717,1.743,1.743,0,0,0,1.131-.717,1.8,1.8,0,0,1,1.206-.717c.377,0,.678-.179.678-.359,0-.215.3-.359.678-.359a1.8,1.8,0,0,0,1.206-.717,1.8,1.8,0,0,1,1.206-.717c.377,0,.678-.179.678-.359,0-.215.3-.359.678-.359a1.8,1.8,0,0,0,1.206-.717,1.742,1.742,0,0,1,1.131-.717,1.742,1.742,0,0,0,1.131-.717,1.8,1.8,0,0,1,1.206-.717c.377,0,.678-.179.678-.359,0-.215.3-.358.678-.358a1.8,1.8,0,0,0,1.206-.717,1.8,1.8,0,0,1,1.206-.717c.377,0,.678-.179.678-.359,0-.215.3-.359.678-.359a1.8,1.8,0,0,0,1.206-.717,1.742,1.742,0,0,1,1.131-.717,1.743,1.743,0,0,0,1.131-.717,1.8,1.8,0,0,1,1.206-.717c.377,0,.678-.179.678-.358,0-.215.3-.359.678-.359a1.8,1.8,0,0,0,1.206-.717,1.8,1.8,0,0,1,1.206-.717c.377,0,.678-.179.678-.359,0-.215.3-.359.678-.359a1.8,1.8,0,0,0,1.206-.717,1.8,1.8,0,0,1,1.206-.717c.377,0,.678-.179.678-.359,0-.215.3-.359.678-.359a1.8,1.8,0,0,0,1.206-.717,1.742,1.742,0,0,1,1.131-.717,1.742,1.742,0,0,0,1.131-.717,1.8,1.8,0,0,1,1.206-.717c.377,0,.678-.179.678-.359,0-.215.3-.358.678-.358a1.8,1.8,0,0,0,1.206-.717,1.8,1.8,0,0,1,1.206-.717c.377,0,.678-.179.678-.359,0-.215.3-.359.678-.359a1.8,1.8,0,0,0,1.206-.717,1.742,1.742,0,0,1,1.131-.717,1.742,1.742,0,0,0,1.131-.717,1.8,1.8,0,0,1,1.206-.717c.377,0,.678-.179.678-.359,0-.215.3-.358.678-.358A1.8,1.8,0,0,0,368-923.27a1.8,1.8,0,0,1,1.206-.717c.377,0,.678-.179.678-.359,0-.215.3-.359.678-.359a1.8,1.8,0,0,0,1.206-.717,1.742,1.742,0,0,1,1.131-.717,1.742,1.742,0,0,0,1.131-.717,1.8,1.8,0,0,1,1.206-.717c.377,0,.678-.179.678-.359,0-.215.3-.358.678-.358a1.8,1.8,0,0,0,1.206-.717,1.8,1.8,0,0,1,1.206-.717c.377,0,.678-.179.678-.359,0-.215.3-.359.678-.359a1.8,1.8,0,0,0,1.206-.717,1.742,1.742,0,0,1,1.131-.717,1.742,1.742,0,0,0,1.131-.717,1.8,1.8,0,0,1,1.206-.717c.377,0,.678-.179.678-.358,0-.215.3-.359.678-.359a1.8,1.8,0,0,0,1.206-.717,1.8,1.8,0,0,1,1.206-.717c.377,0,.678-.179.678-.359,0-.215.3-.359.678-.359a1.8,1.8,0,0,0,1.206-.717,1.8,1.8,0,0,1,1.206-.717c.377,0,.678-.179.678-.359,0-.215.3-.359.678-.359a1.8,1.8,0,0,0,1.206-.717,1.742,1.742,0,0,1,1.131-.717,1.742,1.742,0,0,0,1.131-.717,1.8,1.8,0,0,1,1.206-.717c.377,0,.678-.179.678-.359,0-.215.3-.359.678-.359a1.8,1.8,0,0,0,1.206-.717,1.8,1.8,0,0,1,1.206-.717c.377,0,.678-.179.678-.359,0-.215.3-.359.678-.359a1.8,1.8,0,0,0,1.206-.717,1.742,1.742,0,0,1,1.131-.717,1.742,1.742,0,0,0,1.131-.717,1.8,1.8,0,0,1,1.206-.717c.377,0,.678-.179.678-.359,0-.215.264-.358.565-.358a2.885,2.885,0,0,0,1.508-.9l.942-.86v-41.443c0-27.354-.113-41.407-.377-41.407s-.377-21.869-.377-64.889-.113-64.889-.377-64.889c-.226,0-.377-2.689-.377-7.385,0-7.672-.151-8.389-1.659-8.389-.339,0-.6-.179-.6-.359,0-.215-.3-.359-.678-.359a1.8,1.8,0,0,1-1.206-.717,1.8,1.8,0,0,0-1.206-.717c-.377,0-.678-.179-.678-.358,0-.215-.3-.359-.678-.359a1.8,1.8,0,0,1-1.206-.717,1.8,1.8,0,0,0-1.206-.717c-.377,0-.679-.179-.679-.358,0-.215-.3-.359-.678-.359a1.8,1.8,0,0,1-1.206-.717,1.8,1.8,0,0,0-1.206-.717c-.377,0-.678-.179-.678-.359,0-.215-.3-.358-.678-.358a1.8,1.8,0,0,1-1.206-.717,1.8,1.8,0,0,0-1.206-.717c-.377,0-.678-.179-.678-.359,0-.215-.3-.358-.678-.358a1.8,1.8,0,0,1-1.206-.717,1.8,1.8,0,0,0-1.206-.717c-.377,0-.678-.179-.678-.359,0-.215-.3-.359-.678-.359A1.8,1.8,0,0,1,387.6-1190a1.8,1.8,0,0,0-1.206-.717c-.377,0-.678-.179-.678-.359,0-.215-.3-.359-.678-.359a1.8,1.8,0,0,1-1.206-.717,1.8,1.8,0,0,0-1.206-.717c-.377,0-.678-.179-.678-.359,0-.215-.3-.359-.678-.359a1.8,1.8,0,0,1-1.206-.717,1.8,1.8,0,0,0-1.206-.717c-.377,0-.678-.179-.678-.359,0-.215-.3-.358-.678-.358a1.8,1.8,0,0,1-1.206-.717,1.8,1.8,0,0,0-1.206-.717c-.377,0-.678-.179-.678-.359,0-.215-.3-.358-.678-.358a1.8,1.8,0,0,1-1.206-.717,1.8,1.8,0,0,0-1.206-.717c-.377,0-.678-.179-.678-.359,0-.215-.3-.359-.678-.359a1.8,1.8,0,0,1-1.206-.717,1.8,1.8,0,0,0-1.206-.717c-.377,0-.678-.179-.678-.359,0-.215-.3-.358-.678-.358a1.8,1.8,0,0,1-1.206-.717,1.8,1.8,0,0,0-1.206-.717c-.377,0-.678-.179-.678-.359,0-.215-.3-.359-.678-.359a1.8,1.8,0,0,1-1.206-.717,1.8,1.8,0,0,0-1.206-.717c-.377,0-.678-.179-.678-.359,0-.215-.3-.359-.678-.359a1.8,1.8,0,0,1-1.206-.717,1.8,1.8,0,0,0-1.206-.717c-.377,0-.678-.179-.678-.359,0-.215-.3-.358-.678-.358a1.8,1.8,0,0,1-1.206-.717,1.8,1.8,0,0,0-1.206-.717c-.377,0-.678-.179-.678-.359,0-.215-.3-.359-.678-.359a1.8,1.8,0,0,1-1.206-.717,1.8,1.8,0,0,0-1.206-.717c-.377,0-.678-.179-.678-.359,0-.215-.3-.359-.678-.359a1.8,1.8,0,0,1-1.206-.717,1.8,1.8,0,0,0-1.206-.717c-.377,0-.678-.179-.678-.358,0-.215-.3-.359-.678-.359a1.8,1.8,0,0,1-1.206-.717,1.8,1.8,0,0,0-1.206-.717c-.377,0-.678-.179-.678-.359,0-.215-.3-.359-.678-.359a1.8,1.8,0,0,1-1.206-.717,1.8,1.8,0,0,0-1.206-.717c-.377,0-.678-.179-.678-.359,0-.215-.3-.359-.678-.359a1.8,1.8,0,0,1-1.206-.717,1.8,1.8,0,0,0-1.206-.717c-.377,0-.678-.179-.678-.358,0-.215-.3-.359-.678-.359a1.8,1.8,0,0,1-1.206-.717,1.8,1.8,0,0,0-1.206-.717c-.377,0-.678-.179-.678-.359,0-.215-.3-.359-.678-.359a1.8,1.8,0,0,1-1.206-.717,1.8,1.8,0,0,0-1.206-.717c-.377,0-.678-.179-.678-.358,0-.215-.3-.359-.678-.359a1.8,1.8,0,0,1-1.206-.717,1.8,1.8,0,0,0-1.206-.717c-.377,0-.678-.179-.678-.358,0-.215-.3-.359-.678-.359a1.8,1.8,0,0,1-1.206-.717,1.8,1.8,0,0,0-1.206-.717c-.377,0-.678-.179-.678-.359,0-.215-.3-.359-.678-.359a1.8,1.8,0,0,1-1.206-.717,1.8,1.8,0,0,0-1.206-.717c-.377,0-.678-.179-.678-.358,0-.215-.3-.359-.678-.359a1.8,1.8,0,0,1-1.206-.717,1.8,1.8,0,0,0-1.206-.717c-.377,0-.678-.179-.678-.359,0-.215-.3-.359-.678-.359a1.8,1.8,0,0,1-1.206-.717,1.8,1.8,0,0,0-1.206-.717c-.377,0-.678-.179-.678-.359,0-.215-.3-.359-.678-.359a1.8,1.8,0,0,1-1.206-.717,1.8,1.8,0,0,0-1.206-.717c-.377,0-.678-.179-.678-.358,0-.215-.3-.359-.678-.359a1.8,1.8,0,0,1-1.206-.717,1.8,1.8,0,0,0-1.206-.717c-.377,0-.678-.179-.678-.359,0-.215-.3-.359-.678-.359a1.8,1.8,0,0,1-1.206-.717,1.8,1.8,0,0,0-1.206-.717c-.377,0-.678-.179-.678-.358,0-.215-.3-.359-.678-.359a1.8,1.8,0,0,1-1.206-.717,1.8,1.8,0,0,0-1.206-.717c-.377,0-.678-.179-.678-.359,0-.215-.3-.359-.678-.359a1.8,1.8,0,0,1-1.206-.717,1.8,1.8,0,0,0-1.206-.717c-.377,0-.678-.179-.678-.359,0-.215-.3-.358-.678-.358a1.8,1.8,0,0,1-1.206-.717,1.8,1.8,0,0,0-1.206-.717c-.377,0-.678-.179-.678-.358,0-.215-.3-.359-.678-.359a1.8,1.8,0,0,1-1.206-.717,1.8,1.8,0,0,0-1.206-.717c-.377,0-.678-.179-.678-.359,0-.215-.3-.359-.678-.359a1.8,1.8,0,0,1-1.206-.717,1.8,1.8,0,0,0-1.206-.717c-.377,0-.678-.179-.678-.358,0-.215-.3-.358-.678-.358a1.8,1.8,0,0,1-1.206-.717,1.8,1.8,0,0,0-1.206-.717c-.377,0-.678-.179-.678-.358,0-.215-.3-.359-.678-.359a1.8,1.8,0,0,1-1.206-.717,1.8,1.8,0,0,0-1.206-.717c-.377,0-.678-.179-.678-.359,0-.215-.3-.358-.678-.358a1.8,1.8,0,0,1-1.206-.717,1.8,1.8,0,0,0-1.206-.717c-.377,0-.678-.179-.678-.358,0-.215-.3-.358-.678-.358a1.8,1.8,0,0,1-1.206-.717,1.8,1.8,0,0,0-1.206-.717c-.377,0-.678-.179-.678-.359,0-.215-.3-.359-.678-.359a1.8,1.8,0,0,1-1.206-.717,1.8,1.8,0,0,0-1.206-.717c-.377,0-.678-.179-.678-.359,0-.215-.3-.358-.678-.358a1.8,1.8,0,0,1-1.206-.717,1.8,1.8,0,0,0-1.206-.717c-.377,0-.678-.179-.678-.358,0-.215-.3-.359-.678-.359a1.8,1.8,0,0,1-1.206-.717,1.8,1.8,0,0,0-1.206-.717c-.377,0-.678-.179-.678-.359,0-.215-.3-.359-.678-.359a1.8,1.8,0,0,1-1.206-.717,1.8,1.8,0,0,0-1.206-.717c-.377,0-.678-.179-.678-.359,0-.215-.3-.358-.678-.358a1.8,1.8,0,0,1-1.206-.717,1.8,1.8,0,0,0-1.206-.717c-.377,0-.678-.179-.678-.359,0-.215-.3-.359-.678-.359a1.8,1.8,0,0,1-1.206-.717,1.8,1.8,0,0,0-1.206-.717c-.377,0-.678-.179-.678-.359,0-.215-.3-.358-.678-.358a1.8,1.8,0,0,1-1.206-.717,1.8,1.8,0,0,0-1.206-.717c-.377,0-.678-.179-.678-.359,0-.215-.3-.359-.678-.359a1.8,1.8,0,0,1-1.206-.717,1.8,1.8,0,0,0-1.206-.717c-.377,0-.678-.179-.678-.359,0-.215-.3-.359-.678-.359a1.8,1.8,0,0,1-1.206-.717,1.8,1.8,0,0,0-1.206-.717c-.377,0-.678-.179-.678-.359,0-.215-.3-.358-.678-.358a1.8,1.8,0,0,1-1.206-.717,1.8,1.8,0,0,0-1.206-.717c-.377,0-.678-.179-.678-.359,0-.215-.3-.359-.678-.359a1.8,1.8,0,0,1-1.206-.717,1.8,1.8,0,0,0-1.206-.717c-.377,0-.678-.179-.678-.359,0-.215-.3-.358-.678-.358a1.8,1.8,0,0,1-1.206-.717,1.8,1.8,0,0,0-1.206-.717c-.377,0-.678-.179-.678-.359,0-.215-.3-.358-.678-.358a1.8,1.8,0,0,1-1.206-.717,1.8,1.8,0,0,0-1.206-.717c-.377,0-.678-.179-.678-.359,0-.215-.3-.359-.678-.359a1.8,1.8,0,0,1-1.206-.717,1.8,1.8,0,0,0-1.206-.717c-.377,0-.678-.179-.678-.359,0-.215-.3-.359-.678-.359a1.8,1.8,0,0,1-1.206-.717C206.11-1294,205.544-1294.179,205.544-1293.606Zm159.067,203.272c0,39.9.113,60.229.377,60.229s.377,9.393.377,27.461c0,28.86.038,28.465-1.583,28.465a1.7,1.7,0,0,0-1.055.717,1.8,1.8,0,0,1-1.206.717c-.377,0-.678.143-.678.359,0,.179-.3.358-.678.358a1.8,1.8,0,0,0-1.206.717,1.742,1.742,0,0,1-1.131.717,1.742,1.742,0,0,0-1.131.717,1.8,1.8,0,0,1-1.206.717c-.377,0-.678.143-.678.358,0,.179-.3.359-.678.359a1.8,1.8,0,0,0-1.206.717,1.8,1.8,0,0,1-1.206.717c-.377,0-.678.143-.678.358,0,.179-.3.359-.678.359a1.8,1.8,0,0,0-1.206.717,1.742,1.742,0,0,1-1.131.717,1.742,1.742,0,0,0-1.131.717,1.8,1.8,0,0,1-1.206.717c-.377,0-.678.143-.678.359,0,.179-.3.359-.678.359a1.8,1.8,0,0,0-1.206.717,1.8,1.8,0,0,1-1.206.717c-.377,0-.678.144-.678.359,0,.179-.3.358-.678.358a1.8,1.8,0,0,0-1.206.717,1.742,1.742,0,0,1-1.131.717,1.742,1.742,0,0,0-1.131.717,1.8,1.8,0,0,1-1.206.717c-.377,0-.678.143-.678.359,0,.179-.3.359-.678.359a1.8,1.8,0,0,0-1.206.717,1.8,1.8,0,0,1-1.206.717c-.377,0-.678.143-.678.358,0,.179-.3.359-.678.359a1.8,1.8,0,0,0-1.206.717,1.742,1.742,0,0,1-1.131.717,1.742,1.742,0,0,0-1.131.717,1.8,1.8,0,0,1-1.206.717c-.377,0-.678.143-.678.359,0,.179-.3.359-.678.359a1.8,1.8,0,0,0-1.206.717,1.8,1.8,0,0,1-1.206.717c-.377,0-.678.143-.678.359,0,.179-.3.359-.678.359a1.8,1.8,0,0,0-1.206.717,1.742,1.742,0,0,1-1.131.717,1.742,1.742,0,0,0-1.131.717,1.8,1.8,0,0,1-1.206.717c-.377,0-.678.143-.678.359,0,.179-.3.359-.678.359a1.8,1.8,0,0,0-1.206.717,1.742,1.742,0,0,1-1.131.717,1.743,1.743,0,0,0-1.131.717,1.8,1.8,0,0,1-1.206.717c-.377,0-.678.143-.678.359,0,.179-.3.358-.678.358a1.8,1.8,0,0,0-1.206.717,1.8,1.8,0,0,1-1.206.717c-.377,0-.678.143-.678.359,0,.179-.3.359-.678.359a1.8,1.8,0,0,0-1.206.717,1.742,1.742,0,0,1-1.131.717,1.742,1.742,0,0,0-1.131.717,1.8,1.8,0,0,1-1.206.717c-.377,0-.678.143-.678.359,0,.179-.3.358-.678.358a1.8,1.8,0,0,0-1.206.717,1.8,1.8,0,0,1-1.206.717c-.377,0-.678.143-.678.359,0,.179-.3.359-.678.359a1.8,1.8,0,0,0-1.206.717,1.742,1.742,0,0,1-1.131.717,1.743,1.743,0,0,0-1.131.717,1.8,1.8,0,0,1-1.206.717c-.377,0-.678.143-.678.358,0,.179-.3.359-.678.359a1.8,1.8,0,0,0-1.206.717,1.8,1.8,0,0,1-1.206.717c-.377,0-.678.143-.678.359,0,.179-.3.359-.678.359a1.8,1.8,0,0,0-1.206.717,1.742,1.742,0,0,1-1.131.717,1.742,1.742,0,0,0-1.131.717,1.8,1.8,0,0,1-1.206.717c-.377,0-.678.143-.678.358,0,.179-.3.359-.678.359a1.8,1.8,0,0,0-1.206.717,1.8,1.8,0,0,1-1.206.717c-.377,0-.678.143-.678.359,0,.179-.3.359-.678.359a1.8,1.8,0,0,0-1.206.717,1.742,1.742,0,0,1-1.131.717,1.742,1.742,0,0,0-1.131.717,1.8,1.8,0,0,1-1.206.717c-.377,0-.678.143-.678.358,0,.179-.3.359-.678.359a1.8,1.8,0,0,0-1.206.717,1.8,1.8,0,0,1-1.206.717c-.377,0-.678.143-.678.359,0,.179-.3.359-.678.359a1.8,1.8,0,0,0-1.206.717,1.742,1.742,0,0,1-1.131.717,1.742,1.742,0,0,0-1.131.717,1.8,1.8,0,0,1-1.206.717c-.377,0-.678.143-.678.358,0,.179-.3.359-.678.359a1.8,1.8,0,0,0-1.206.717,1.8,1.8,0,0,1-1.206.717c-.377,0-.678.143-.678.359,0,.179-.3.358-.678.358a1.8,1.8,0,0,0-1.206.717,1.742,1.742,0,0,1-1.131.717,1.742,1.742,0,0,0-1.131.717,1.8,1.8,0,0,1-1.206.717c-.377,0-.678.143-.678.359,0,.179-.3.359-.678.359a1.8,1.8,0,0,0-1.206.717,1.8,1.8,0,0,1-1.206.717c-.377,0-.678.143-.678.359,0,.179-.3.358-.678.358a1.8,1.8,0,0,0-1.206.717,1.8,1.8,0,0,1-1.206.717c-.377,0-.678.143-.678.359,0,.179-.3.359-.678.359a1.8,1.8,0,0,0-1.206.717,1.743,1.743,0,0,1-1.131.717,1.742,1.742,0,0,0-1.131.717,1.8,1.8,0,0,1-1.206.717c-.377,0-.678.143-.678.359,0,.179-.3.358-.678.358a1.8,1.8,0,0,0-1.206.717,1.8,1.8,0,0,1-1.206.717c-.377,0-.678.143-.678.359,0,.179-.3.358-.678.358a1.8,1.8,0,0,0-1.206.717,1.742,1.742,0,0,1-1.131.717,1.742,1.742,0,0,0-1.131.717,1.8,1.8,0,0,1-1.206.717c-.377,0-.678.143-.678.359,0,.179-.3.359-.678.359a1.8,1.8,0,0,0-1.206.717,1.8,1.8,0,0,1-1.206.717c-.377,0-.678.143-.678.359,0,.179-.3.359-.678.359a1.8,1.8,0,0,0-1.206.717,1.743,1.743,0,0,1-1.131.717,1.742,1.742,0,0,0-1.131.717,1.8,1.8,0,0,1-1.206.717c-.377,0-.678.143-.678.359,0,.179-.3.359-.678.359a1.8,1.8,0,0,0-1.206.717,1.8,1.8,0,0,1-1.206.717c-.377,0-.678.143-.678.359,0,.179-.3.358-.678.358a1.8,1.8,0,0,0-1.206.717,1.8,1.8,0,0,1-1.206.717c-.377,0-.678.143-.678.359,0,.179-.339.358-.754.358s-.754.143-.754.359c0,.179-.339.359-.754.359s-.754-.179-.754-.359c0-.215-.339-.359-.754-.359s-.754-.179-.754-.358c0-.215-.3-.359-.678-.359a1.8,1.8,0,0,1-1.206-.717,1.8,1.8,0,0,0-1.206-.717c-.377,0-.678-.179-.678-.358,0-.215-.3-.359-.678-.359a1.8,1.8,0,0,1-1.206-.717,1.8,1.8,0,0,0-1.206-.717c-.377,0-.678-.179-.678-.359,0-.215-.3-.359-.678-.359a1.8,1.8,0,0,1-1.206-.717,1.8,1.8,0,0,0-1.206-.717c-.377,0-.678-.179-.678-.359,0-.215-.3-.359-.678-.359a1.8,1.8,0,0,1-1.206-.717,1.8,1.8,0,0,0-1.206-.717c-.377,0-.678-.179-.678-.358,0-.215-.3-.359-.678-.359a1.8,1.8,0,0,1-1.206-.717,1.8,1.8,0,0,0-1.206-.717c-.377,0-.678-.179-.678-.358,0-.215-.3-.359-.678-.359a1.8,1.8,0,0,1-1.206-.717,1.8,1.8,0,0,0-1.206-.717c-.377,0-.678-.179-.678-.359,0-.215-.3-.359-.678-.359a1.8,1.8,0,0,1-1.206-.717,1.8,1.8,0,0,0-1.206-.717c-.377,0-.678-.179-.678-.359,0-.215-.3-.359-.678-.359a1.8,1.8,0,0,1-1.206-.717,1.8,1.8,0,0,0-1.206-.717c-.377,0-.678-.179-.678-.359,0-.215-.3-.359-.678-.359a1.8,1.8,0,0,1-1.206-.717,1.8,1.8,0,0,0-1.206-.717c-.377,0-.678-.179-.678-.359,0-.215-.3-.359-.678-.359a1.8,1.8,0,0,1-1.206-.717,1.8,1.8,0,0,0-1.206-.717c-.377,0-.678-.179-.678-.358,0-.215-.3-.359-.678-.359a1.8,1.8,0,0,1-1.206-.717,1.8,1.8,0,0,0-1.206-.717c-.377,0-.678-.179-.678-.359,0-.215-.3-.359-.678-.359a1.8,1.8,0,0,1-1.206-.717,1.8,1.8,0,0,0-1.206-.717c-.377,0-.678-.179-.678-.359,0-.215-.3-.359-.678-.359a1.8,1.8,0,0,1-1.206-.717,1.8,1.8,0,0,0-1.206-.717c-.377,0-.678-.179-.678-.359,0-.215-.3-.359-.678-.359a1.8,1.8,0,0,1-1.206-.717,1.8,1.8,0,0,0-1.206-.717c-.377,0-.678-.179-.678-.359,0-.215-.3-.359-.678-.359a1.8,1.8,0,0,1-1.206-.717,1.8,1.8,0,0,0-1.206-.717c-.377,0-.678-.179-.678-.359,0-.215-.3-.358-.678-.358a1.8,1.8,0,0,1-1.206-.717,1.8,1.8,0,0,0-1.206-.717c-.377,0-.678-.179-.678-.359,0-.215-.3-.359-.678-.359a1.8,1.8,0,0,1-1.206-.717,1.8,1.8,0,0,0-1.206-.717c-.377,0-.678-.179-.678-.359,0-.215-.3-.359-.678-.359a1.8,1.8,0,0,1-1.206-.717,1.8,1.8,0,0,0-1.206-.717c-.377,0-.678-.179-.678-.359,0-.215-.3-.359-.678-.359a1.8,1.8,0,0,1-1.206-.717,1.8,1.8,0,0,0-1.206-.717c-.377,0-.678-.179-.678-.359,0-.215-.3-.358-.678-.358a1.8,1.8,0,0,1-1.206-.717,1.8,1.8,0,0,0-1.206-.717c-.377,0-.678-.179-.678-.359,0-.215-.3-.359-.678-.359a1.8,1.8,0,0,1-1.206-.717,1.8,1.8,0,0,0-1.206-.717c-.377,0-.678-.179-.678-.359,0-.215-.3-.359-.678-.359a1.8,1.8,0,0,1-1.206-.717,1.8,1.8,0,0,0-1.206-.717c-.377,0-.678-.179-.678-.359,0-.215-.3-.359-.678-.359a1.8,1.8,0,0,1-1.206-.717,1.8,1.8,0,0,0-1.206-.717c-.377,0-.678-.179-.678-.358,0-.215-.3-.359-.678-.359a1.8,1.8,0,0,1-1.206-.717,1.8,1.8,0,0,0-1.206-.717c-.377,0-.678-.179-.678-.359,0-.215-.3-.359-.678-.359a1.8,1.8,0,0,1-1.206-.717,1.8,1.8,0,0,0-1.206-.717c-.377,0-.678-.179-.678-.359,0-.215-.3-.359-.678-.359a1.8,1.8,0,0,1-1.206-.717,1.8,1.8,0,0,0-1.206-.717c-.377,0-.678-.179-.678-.359,0-.215-.3-.359-.678-.359a1.8,1.8,0,0,1-1.206-.717,1.8,1.8,0,0,0-1.206-.717c-.377,0-.678-.179-.678-.358,0-.215-.3-.359-.678-.359a1.8,1.8,0,0,1-1.206-.717,1.8,1.8,0,0,0-1.206-.717c-.377,0-.678-.179-.678-.359,0-.215-.3-.359-.678-.359a1.8,1.8,0,0,1-1.206-.717,1.8,1.8,0,0,0-1.206-.717c-.377,0-.678-.179-.678-.359,0-.215-.3-.359-.678-.359a1.8,1.8,0,0,1-1.206-.717,1.8,1.8,0,0,0-1.206-.717c-.377,0-.678-.179-.678-.359,0-.215-.3-.359-.678-.359a1.8,1.8,0,0,1-1.206-.717,1.8,1.8,0,0,0-1.206-.717c-.377,0-.678-.179-.678-.359,0-.215-.3-.359-.678-.359a1.8,1.8,0,0,1-1.206-.717,1.8,1.8,0,0,0-1.206-.717c-.377,0-.678-.179-.678-.359,0-.215-.3-.358-.678-.358a1.8,1.8,0,0,1-1.206-.717,1.8,1.8,0,0,0-1.206-.717c-.377,0-.678-.179-.678-.359,0-.215-.3-.358-.678-.358a1.8,1.8,0,0,1-1.206-.717,1.8,1.8,0,0,0-1.206-.717c-.377,0-.678-.179-.678-.359,0-.215-.3-.359-.678-.359A1.8,1.8,0,0,1,75.5-958.4a1.8,1.8,0,0,0-1.206-.717c-.377,0-.678-.179-.678-.359,0-.215-.3-.359-.678-.359a1.8,1.8,0,0,1-1.206-.717,1.8,1.8,0,0,0-1.206-.717c-.377,0-.678-.179-.678-.359,0-.215-.3-.358-.678-.358a1.8,1.8,0,0,1-1.206-.717,1.8,1.8,0,0,0-1.206-.717c-.377,0-.678-.179-.678-.358,0-.215-.3-.359-.678-.359a1.8,1.8,0,0,1-1.206-.717,1.8,1.8,0,0,0-1.206-.717c-.377,0-.678-.179-.678-.359,0-.215-.3-.359-.678-.359a1.8,1.8,0,0,1-1.206-.717,1.8,1.8,0,0,0-1.206-.717c-.377,0-.678-.179-.678-.359,0-.215-.3-.359-.678-.359a1.8,1.8,0,0,1-1.206-.717,1.8,1.8,0,0,0-1.206-.717c-.377,0-.678-.179-.678-.358,0-.215-.3-.359-.678-.359a1.8,1.8,0,0,1-1.206-.717,1.8,1.8,0,0,0-1.206-.717c-.377,0-.678-.179-.678-.358,0-.215-.339-.359-.754-.359-.754,0-.754-.251-.754-39.436,0-26.063-.113-39.436-.377-39.436s-.377-16.384-.377-48.4c0-48.147,0-48.4.754-48.4.415,0,.754.143.754.358,0,.179.339.359.754.359s.754.143.754.359c0,.179.3.359.678.359a1.8,1.8,0,0,1,1.206.717,1.8,1.8,0,0,0,1.206.717c.377,0,.678.143.678.359,0,.179.339.358.754.358s.754.143.754.359c0,.179.3.359.678.359a1.8,1.8,0,0,1,1.206.717,1.742,1.742,0,0,0,1.131.717,1.742,1.742,0,0,1,1.131.717,1.8,1.8,0,0,0,1.206.717c.377,0,.678.143.678.359,0,.179.3.359.678.359a1.8,1.8,0,0,1,1.206.717,1.8,1.8,0,0,0,1.206.717c.377,0,.678.143.678.359,0,.179.3.359.678.359a1.8,1.8,0,0,1,1.206.717,1.8,1.8,0,0,0,1.206.717c.377,0,.678.143.678.359,0,.179.3.359.678.359a1.8,1.8,0,0,1,1.206.717,1.8,1.8,0,0,0,1.206.717c.377,0,.678.143.678.359,0,.179.3.359.678.359a1.8,1.8,0,0,1,1.206.717,1.8,1.8,0,0,0,1.206.717c.377,0,.678.143.678.359,0,.179.3.358.678.358a1.8,1.8,0,0,1,1.206.717,1.8,1.8,0,0,0,1.206.717c.377,0,.678.143.678.359,0,.179.3.359.678.359a1.8,1.8,0,0,1,1.206.717,1.8,1.8,0,0,0,1.206.717c.377,0,.678.143.678.359,0,.179.3.359.678.359a1.8,1.8,0,0,1,1.206.717,1.8,1.8,0,0,0,1.206.717c.377,0,.678.143.678.359,0,.179.3.359.678.359a1.8,1.8,0,0,1,1.206.717,1.8,1.8,0,0,0,1.206.717c.377,0,.678.143.678.359,0,.179.3.359.678.359a1.8,1.8,0,0,1,1.206.717,1.8,1.8,0,0,0,1.206.717c.377,0,.678.143.678.359,0,.179.3.359.678.359a1.8,1.8,0,0,1,1.206.717,1.8,1.8,0,0,0,1.206.717c.377,0,.678.143.678.359,0,.179.3.359.678.359a1.8,1.8,0,0,1,1.206.717,1.8,1.8,0,0,0,1.206.717c.377,0,.678.143.678.359,0,.179.3.359.678.359a1.8,1.8,0,0,1,1.206.717,1.8,1.8,0,0,0,1.206.717c.377,0,.678.143.678.358,0,.179.3.359.678.359a1.8,1.8,0,0,1,1.206.717,1.8,1.8,0,0,0,1.206.717c.377,0,.678.143.678.359,0,.179.3.359.678.359a1.8,1.8,0,0,1,1.206.717,1.8,1.8,0,0,0,1.206.717c.377,0,.678.143.678.359,0,.179.3.359.678.359a1.8,1.8,0,0,1,1.206.717,1.8,1.8,0,0,0,1.206.717c.377,0,.678.143.678.359,0,.179.3.359.678.359a1.8,1.8,0,0,1,1.206.717,1.8,1.8,0,0,0,1.206.717c.377,0,.678.143.678.358,0,.179.3.359.678.359a1.8,1.8,0,0,1,1.206.717,1.8,1.8,0,0,0,1.206.717c.377,0,.678.143.678.359,0,.179.3.359.678.359a1.8,1.8,0,0,1,1.206.717,1.8,1.8,0,0,0,1.206.717c.377,0,.678.143.678.359,0,.179.3.359.678.359a1.8,1.8,0,0,1,1.206.717,1.8,1.8,0,0,0,1.206.717c.377,0,.678.143.678.359,0,.179.3.359.678.359a1.8,1.8,0,0,1,1.206.717,1.8,1.8,0,0,0,1.206.717c.377,0,.678.143.678.359,0,.179.3.359.678.359a1.8,1.8,0,0,1,1.206.717,1.8,1.8,0,0,0,1.206.717c.377,0,.678.143.678.359,0,.179.339.358.754.358s.754.143.754.359c0,.179.3.359.678.359a1.8,1.8,0,0,1,1.206.717,1.8,1.8,0,0,0,1.206.717c.377,0,.678.143.678.359,0,.179.3.358.678.358a1.8,1.8,0,0,1,1.206.717,1.8,1.8,0,0,0,1.206.717c.377,0,.678.143.678.359,0,.179.3.359.678.359a1.8,1.8,0,0,1,1.206.717,1.8,1.8,0,0,0,1.206.717c.377,0,.678.143.678.359,0,.179.3.359.678.359a1.8,1.8,0,0,1,1.206.717,1.8,1.8,0,0,0,1.206.717c.377,0,.678.143.678.359,0,.179.3.359.678.359a1.8,1.8,0,0,1,1.206.717,1.8,1.8,0,0,0,1.206.717c.377,0,.678.143.678.359,0,.179.3.358.678.358a1.8,1.8,0,0,1,1.206.717,1.8,1.8,0,0,0,1.206.717c.377,0,.678.143.678.359,0,.179.3.359.678.359a1.8,1.8,0,0,1,1.206.717,1.8,1.8,0,0,0,1.206.717c.377,0,.678.143.678.359,0,.179.3.359.678.359a1.8,1.8,0,0,1,1.206.717,1.8,1.8,0,0,0,1.206.717c.377,0,.678.143.678.359,0,.179.3.359.678.359a1.8,1.8,0,0,1,1.206.717,1.8,1.8,0,0,0,1.206.717c.377,0,.678.143.678.358,0,.179.3.359.678.359a1.8,1.8,0,0,1,1.206.717,1.8,1.8,0,0,0,1.206.717c.377,0,.678.143.678.359,0,.179.3.359.678.359a1.8,1.8,0,0,1,1.206.717,1.8,1.8,0,0,0,1.206.717c.377,0,.678.143.678.359,0,.179.3.359.678.359a1.8,1.8,0,0,1,1.206.717,1.8,1.8,0,0,0,1.206.717c.377,0,.678.143.678.359,0,.179.3.359.678.359a1.8,1.8,0,0,1,1.206.717,1.8,1.8,0,0,0,1.206.717c.377,0,.678.143.678.358,0,.179.3.359.678.359a1.8,1.8,0,0,1,1.206.717,1.8,1.8,0,0,0,1.206.717c.377,0,.678.143.678.359,0,.179.3.359.678.359a1.8,1.8,0,0,1,1.206.717,1.8,1.8,0,0,0,1.206.717c.377,0,.678.143.678.359,0,.179.3.359.678.359a1.8,1.8,0,0,1,1.206.717,1.8,1.8,0,0,0,1.206.717c.377,0,.678.143.678.359,0,.179.3.359.678.359a1.8,1.8,0,0,1,1.206.717c.565.753,1.885,1,1.885.359,0-.215.3-.359.678-.359a1.8,1.8,0,0,0,1.206-.717,1.742,1.742,0,0,1,1.131-.717,1.742,1.742,0,0,0,1.131-.717,1.8,1.8,0,0,1,1.206-.717c.377,0,.678-.179.678-.359,0-.215.3-.359.678-.359a1.8,1.8,0,0,0,1.206-.717,1.8,1.8,0,0,1,1.206-.717c.377,0,.678-.179.678-.359,0-.215.3-.359.678-.359a1.8,1.8,0,0,0,1.206-.717,1.742,1.742,0,0,1,1.131-.717,1.742,1.742,0,0,0,1.131-.717,1.8,1.8,0,0,1,1.206-.717c.377,0,.678-.179.678-.359,0-.215.3-.359.678-.359a1.8,1.8,0,0,0,1.206-.717,1.8,1.8,0,0,1,1.206-.717c.377,0,.678-.179.678-.358,0-.215.3-.359.678-.359a1.8,1.8,0,0,0,1.206-.717,1.742,1.742,0,0,1,1.131-.717,1.742,1.742,0,0,0,1.131-.717,1.8,1.8,0,0,1,1.206-.717c.377,0,.678-.179.678-.359,0-.215.3-.359.678-.359a1.8,1.8,0,0,0,1.206-.717,1.8,1.8,0,0,1,1.206-.717c.377,0,.678-.179.678-.359,0-.215.3-.359.678-.359a1.8,1.8,0,0,0,1.206-.717,1.743,1.743,0,0,1,1.131-.717,1.742,1.742,0,0,0,1.131-.717,1.8,1.8,0,0,1,1.206-.717c.377,0,.678-.179.678-.359,0-.215.3-.359.678-.359a1.8,1.8,0,0,0,1.206-.717,1.742,1.742,0,0,1,1.131-.717,1.743,1.743,0,0,0,1.131-.717,1.8,1.8,0,0,1,1.206-.717c.377,0,.678-.179.678-.359,0-.215.3-.359.678-.359a1.8,1.8,0,0,0,1.206-.717,1.8,1.8,0,0,1,1.206-.717c.377,0,.678-.179.678-.359,0-.215.3-.359.678-.359a1.8,1.8,0,0,0,1.206-.717,1.742,1.742,0,0,1,1.131-.717,1.742,1.742,0,0,0,1.131-.717,1.8,1.8,0,0,1,1.206-.717c.377,0,.678-.179.678-.359,0-.215.3-.359.678-.359a1.8,1.8,0,0,0,1.206-.717,1.8,1.8,0,0,1,1.206-.717c.377,0,.678-.179.678-.359,0-.215.3-.359.678-.359a1.8,1.8,0,0,0,1.206-.717,1.8,1.8,0,0,1,1.206-.717c.377,0,.678-.179.678-.359,0-.215.3-.359.678-.359a1.8,1.8,0,0,0,1.206-.717,1.742,1.742,0,0,1,1.131-.717,1.742,1.742,0,0,0,1.131-.717,1.8,1.8,0,0,1,1.206-.717c.377,0,.678-.179.678-.359,0-.215.3-.359.678-.359a1.8,1.8,0,0,0,1.206-.717,1.8,1.8,0,0,1,1.206-.717c.377,0,.678-.179.678-.359,0-.215.3-.359.678-.359a1.8,1.8,0,0,0,1.206-.717,1.742,1.742,0,0,1,1.131-.717,1.742,1.742,0,0,0,1.131-.717,1.8,1.8,0,0,1,1.206-.717c.377,0,.678-.179.678-.359,0-.215.3-.359.678-.359a1.8,1.8,0,0,0,1.206-.717,1.8,1.8,0,0,1,1.206-.717c.377,0,.678-.179.678-.359,0-.215.3-.359.678-.359a1.8,1.8,0,0,0,1.206-.717,1.742,1.742,0,0,1,1.131-.717,1.742,1.742,0,0,0,1.131-.717,1.8,1.8,0,0,1,1.206-.717c.377,0,.678-.179.678-.359,0-.215.3-.359.678-.359a1.8,1.8,0,0,0,1.206-.717,1.8,1.8,0,0,1,1.206-.717c.377,0,.678-.179.678-.359,0-.215.3-.359.678-.359a1.8,1.8,0,0,0,1.206-.717,1.742,1.742,0,0,1,1.131-.717,1.742,1.742,0,0,0,1.131-.717,1.8,1.8,0,0,1,1.206-.717c.377,0,.678-.179.678-.359,0-.215.3-.359.678-.359a1.8,1.8,0,0,0,1.206-.717,1.8,1.8,0,0,1,1.206-.717c.377,0,.678-.179.678-.359,0-.215.3-.359.678-.359a1.8,1.8,0,0,0,1.206-.717,1.742,1.742,0,0,1,1.131-.717,1.742,1.742,0,0,0,1.131-.717,1.8,1.8,0,0,1,1.206-.717c.377,0,.678-.179.678-.358,0-.215.3-.359.678-.359a1.8,1.8,0,0,0,1.206-.717,1.8,1.8,0,0,1,1.206-.717c.377,0,.678-.179.678-.359,0-.215.3-.359.678-.359a1.8,1.8,0,0,0,1.206-.717,1.742,1.742,0,0,1,1.131-.717,1.742,1.742,0,0,0,1.131-.717,1.8,1.8,0,0,1,1.206-.717c.377,0,.678-.179.678-.359,0-.215.3-.359.678-.359a1.8,1.8,0,0,0,1.206-.717,1.8,1.8,0,0,1,1.206-.717c.377,0,.678-.179.678-.359,0-.215.3-.359.678-.359a1.8,1.8,0,0,0,1.206-.717,1.742,1.742,0,0,1,1.131-.717,1.742,1.742,0,0,0,1.131-.717,1.8,1.8,0,0,1,1.206-.717c.377,0,.678-.179.678-.359,0-.215.3-.359.678-.359a1.8,1.8,0,0,0,1.206-.717,1.8,1.8,0,0,1,1.206-.717c.377,0,.678-.179.678-.359,0-.215.3-.358.678-.358a1.8,1.8,0,0,0,1.206-.717,1.742,1.742,0,0,1,1.131-.717,1.742,1.742,0,0,0,1.131-.717,1.8,1.8,0,0,1,1.206-.717c.377,0,.678-.179.678-.358,0-.215.3-.359.678-.359a1.8,1.8,0,0,0,1.206-.717,1.8,1.8,0,0,1,1.206-.717c.377,0,.678-.179.678-.359,0-.215.3-.359.678-.359a1.8,1.8,0,0,0,1.206-.717,1.8,1.8,0,0,1,1.206-.717c.377,0,.678-.179.678-.359,0-.215.3-.358.678-.358a1.8,1.8,0,0,0,1.206-.717,1.742,1.742,0,0,1,1.131-.717,1.742,1.742,0,0,0,1.131-.717,1.8,1.8,0,0,1,1.206-.717c.377,0,.678-.179.678-.358,0-.215.3-.359.678-.359a1.8,1.8,0,0,0,1.206-.717,1.8,1.8,0,0,1,1.206-.717c.377,0,.678-.179.678-.359,0-.215.3-.359.678-.359a1.8,1.8,0,0,0,1.206-.717,1.742,1.742,0,0,1,1.131-.717,1.742,1.742,0,0,0,1.131-.717,1.8,1.8,0,0,1,1.206-.717C364.573-1150.562,364.611-1147.838,364.611-1090.333Z" transform="translate(752.63 -930.315)" fill="#1fbcfd"/>
        </g>
    </g>
</svg>
